<svg width="32" height="32" viewBox="0 0 32 32" fill="none" xmlns="http://www.w3.org/2000/svg">
<path d="M1 22C1.00083 22.7954 1.31716 23.558 1.87959 24.1204C2.44202 24.6828 3.2046 24.9992 4 25H12.3675L12.1175 27H9C8.73478 27 8.48043 27.1054 8.29289 27.2929C8.10536 27.4804 8 27.7348 8 28C8 28.2652 8.10536 28.5196 8.29289 28.7071C8.48043 28.8946 8.73478 29 9 29H23C23.2652 29 23.5196 28.8946 23.7071 28.7071C23.8946 28.5196 24 28.2652 24 28C24 27.7348 23.8946 27.4804 23.7071 27.2929C23.5196 27.1054 23.2652 27 23 27H19.8825L19.6325 25H28C28.7954 24.9992 29.558 24.6828 30.1204 24.1204C30.6828 23.558 30.9992 22.7954 31 22V19H1V22ZM16 21C16.1978 21 16.3911 21.0586 16.5556 21.1685C16.72 21.2784 16.8482 21.4346 16.9239 21.6173C16.9996 21.8 17.0194 22.0011 16.9808 22.1951C16.9422 22.3891 16.847 22.5673 16.7071 22.7071C16.5673 22.847 16.3891 22.9422 16.1951 22.9808C16.0011 23.0194 15.8 22.9996 15.6173 22.9239C15.4346 22.8482 15.2784 22.72 15.1685 22.5556C15.0586 22.3911 15 22.1978 15 22C15 21.7348 15.1054 21.4804 15.2929 21.2929C15.4804 21.1054 15.7348 21 16 21ZM31 6C30.9992 5.2046 30.6828 4.44202 30.1204 3.87959C29.558 3.31716 28.7954 3.00083 28 3H4C3.2046 3.00083 2.44202 3.31716 1.87959 3.87959C1.31716 4.44202 1.00083 5.2046 1 6V18H31V6Z" fill="#D883FF"/>
</svg>
