<svg width="24" height="24" viewBox="0 0 24 24" fill="none" xmlns="http://www.w3.org/2000/svg">
<path d="M7 13C6.46957 13 5.96086 13.2107 5.58579 13.5858C5.21071 13.9609 5 14.4696 5 15C5 16.9327 5.7835 18.4326 7.05033 19.4504C8.31611 20.4667 10.0667 21 12 21C13.933 21 15.6834 20.4669 16.9492 19.4509L7 13ZM7 13H17M7 13H17M17 13C17.5304 13 18.0391 13.2107 18.4142 13.5858C18.7893 13.9609 19 14.4696 19 15C19 16.9318 18.2152 18.4319 16.9499 19.4503L17 13ZM9.87868 3.87868C10.4413 3.31607 11.2044 3 12 3C12.7956 3 13.5587 3.31607 14.1213 3.87868C14.6839 4.44129 15 5.20435 15 6C15 6.79565 14.6839 7.55871 14.1213 8.12132C13.5587 8.68393 12.7956 9 12 9C11.2044 9 10.4413 8.68393 9.87868 8.12132C9.31607 7.55871 9 6.79565 9 6C9 5.20435 9.31607 4.44129 9.87868 3.87868Z" stroke="white" stroke-width="2"/>
</svg>
