<svg width="32" height="32" viewBox="0 0 32 32" fill="none" xmlns="http://www.w3.org/2000/svg">
<path d="M5.25077 10.7508C4.23752 10.7503 3.41627 11.5736 3.41602 12.5861L3.41727 20.2701C3.4171 20.5112 3.46446 20.7499 3.55665 20.9727C3.64883 21.1955 3.78402 21.3979 3.95449 21.5684C4.12496 21.7389 4.32737 21.8741 4.55014 21.9663C4.77291 22.0585 5.01167 22.1059 5.25277 22.1058C5.49383 22.1061 5.73258 22.0588 5.95534 21.9666C6.1781 21.8744 6.38048 21.7392 6.55089 21.5687C6.72131 21.3982 6.85641 21.1958 6.94845 20.973C7.04049 20.7501 7.08766 20.5114 7.08727 20.2703V12.5851C7.08674 12.0984 6.89301 11.6318 6.54865 11.2878C6.20429 10.9439 5.73747 10.7507 5.25077 10.7508ZM20.049 3.8503L21.3298 1.51155C21.3624 1.45222 21.3702 1.38238 21.3514 1.31733C21.3326 1.25228 21.2888 1.19734 21.2295 1.16455C21.1702 1.13245 21.1005 1.12513 21.0358 1.1442C20.9711 1.16326 20.9165 1.20716 20.884 1.2663L19.5903 3.62955C18.5018 3.14505 17.2835 2.87355 15.9945 2.8748C14.709 2.87355 13.4913 3.1443 12.4073 3.62605L11.112 1.2688C11.0962 1.23938 11.0747 1.21338 11.0488 1.19233C11.0229 1.17127 10.993 1.15556 10.961 1.14612C10.9289 1.13668 10.8953 1.13369 10.8621 1.13733C10.8289 1.14096 10.7968 1.15115 10.7675 1.1673C10.738 1.18308 10.7119 1.20459 10.6908 1.23057C10.6697 1.25655 10.654 1.28647 10.6446 1.3186C10.6352 1.35072 10.6323 1.3844 10.636 1.41766C10.6398 1.45092 10.6502 1.4831 10.6665 1.5123L11.9478 3.84955C9.43027 5.1478 7.72927 7.6203 7.73077 10.4591L24.2603 10.4571C24.2608 7.6193 22.5628 5.1518 20.049 3.8503ZM12.235 7.46455C12.0512 7.46445 11.8749 7.39133 11.745 7.26128C11.6151 7.13122 11.5422 6.95488 11.5423 6.77105C11.5424 6.58722 11.6155 6.41097 11.7455 6.28105C11.8756 6.15113 12.0519 6.0782 12.2358 6.0783C12.4196 6.07863 12.5958 6.1518 12.7259 6.28177C12.8559 6.41175 12.9291 6.58795 12.9295 6.7718C12.9292 6.95573 12.8559 7.13201 12.7256 7.2619C12.5954 7.3918 12.4189 7.46469 12.235 7.46455ZM19.7615 7.4633C19.6705 7.46337 19.5804 7.4455 19.4963 7.41071C19.4122 7.37592 19.3358 7.3249 19.2714 7.26056C19.2071 7.19623 19.156 7.11983 19.1212 7.03575C19.0864 6.95167 19.0685 6.86156 19.0685 6.77055C19.0695 6.58688 19.1428 6.41099 19.2726 6.28099C19.4023 6.151 19.5781 6.07737 19.7618 6.07605C19.9453 6.07757 20.1208 6.15134 20.2503 6.28139C20.3798 6.41144 20.4528 6.58728 20.4535 6.7708C20.4536 6.86173 20.4358 6.95178 20.4011 7.03581C20.3663 7.11984 20.3154 7.1962 20.2511 7.26052C20.1868 7.32484 20.1105 7.37585 20.0265 7.41065C19.9425 7.44544 19.8524 7.46334 19.7615 7.4633ZM7.79827 11.0976L7.80102 23.0063C7.80072 23.2635 7.85116 23.5182 7.94946 23.7559C8.04776 23.9936 8.19198 24.2095 8.37386 24.3914C8.55574 24.5732 8.7717 24.7174 9.00939 24.8157C9.24708 24.914 9.50182 24.9644 9.75902 24.9641L11.0923 24.9646L11.0938 29.0306C11.0935 30.0431 11.9165 30.8661 12.9275 30.8661C13.9415 30.8661 14.763 30.0423 14.7633 29.0293L14.7623 24.9643L17.2395 24.9636L17.2405 29.0293C17.2405 30.0411 18.0638 30.8658 19.075 30.8638C20.089 30.8646 20.911 30.0408 20.9108 29.0278L20.9095 24.9631L22.2475 24.9621C22.5047 24.9621 22.7595 24.9115 22.9971 24.813C23.2348 24.7146 23.4507 24.5704 23.6326 24.3885C23.8145 24.2067 23.9589 23.9907 24.0573 23.7531C24.1558 23.5155 24.2065 23.2608 24.2065 23.0036L24.2043 11.0948L7.79827 11.0976ZM28.5818 12.5833C28.5818 12.3423 28.5343 12.1037 28.4421 11.881C28.3499 11.6584 28.2147 11.4561 28.0443 11.2857C27.8738 11.1153 27.6715 10.9802 27.4488 10.888C27.2262 10.7958 26.9875 10.7485 26.7465 10.7486C25.7333 10.7476 24.9123 11.5703 24.9123 12.5841L24.9138 20.2686C24.9136 20.5095 24.9609 20.7482 25.0531 20.9709C25.1452 21.1936 25.2804 21.3959 25.4508 21.5663C25.6212 21.7367 25.8235 21.8718 26.0462 21.964C26.2689 22.0561 26.5075 22.1035 26.7485 22.1033C26.9895 22.1033 27.2282 22.0559 27.4509 21.9636C27.6735 21.8713 27.8758 21.7361 28.0462 21.5656C28.2166 21.3951 28.3517 21.1927 28.4438 20.97C28.5359 20.7473 28.5832 20.5086 28.583 20.2676L28.5818 12.5833Z" fill="#D883FF"/>
</svg>
