<svg width="40" height="40" viewBox="0 0 40 40" fill="none" xmlns="http://www.w3.org/2000/svg">
<path d="M8.17303 34.1963L18.2671 30.038C18.5199 29.8668 18.7726 29.6955 18.9439 29.5325L35.569 9.26275C36.0745 8.49632 35.9929 7.48528 35.3162 6.89007L27.4236 0.35908C26.7713 -0.12198 25.7684 -0.195362 25.1324 0.61184L8.42579 20.8734C8.25457 21.1262 8.17303 21.3789 8.08334 21.6398L5.96342 32.4107C5.85743 34.2534 7.33322 34.5714 8.17303 34.1963ZM26.5756 3.99556L31.9162 8.40663L17.4273 26.108L12.1357 21.7295L26.5756 3.99556ZM10.8229 25.0236L14.4431 28.0241L9.77928 29.9483L10.8229 25.0236Z" fill="#F5F1F5"/>
<path d="M38.1944 36.5691H9.69775C9.69775 36.5691 3.78643 36.8463 3.56628 35.3297C3.56628 35.2482 3.41952 34.8731 4.18595 33.9436C4.78116 33.1772 4.69147 32.1661 4.01473 31.5709C3.2483 30.9757 2.23726 31.0654 1.64205 31.7422C0.027644 33.6909 -0.396341 35.3868 0.370093 36.9197C2.44925 40.7926 9.44499 39.8794 9.77929 39.9609H38.1944C39.1239 39.9609 39.8903 39.1945 39.8903 38.265C39.8985 37.3273 39.1321 36.5691 38.1944 36.5691Z" fill="#F5F1F5"/>
</svg>
