<svg width="60" height="42" viewBox="0 0 60 42" fill="none" xmlns="http://www.w3.org/2000/svg">
<path d="M44.1265 12.44C43.7563 12.8103 43.7562 13.4124 44.1275 13.7836C45.852 15.5083 46.8023 17.8021 46.8023 20.2417C46.8023 22.682 45.852 24.9759 44.1275 26.7005C43.7563 27.0717 43.7563 27.6738 44.1265 28.0441C44.3122 28.2297 44.5555 28.323 44.7988 28.323C45.0421 28.323 45.2855 28.2297 45.4702 28.045C47.5554 25.9607 48.7027 23.1899 48.7027 20.2417C48.7027 17.2941 47.5554 14.5234 45.4702 12.4391C45.1008 12.0679 44.4978 12.0687 44.1265 12.44Z" fill="#F5F1F5" stroke="#F5F1F5" stroke-width="2"/>
<path d="M52.7368 6.73407C52.3656 6.36468 51.7635 6.36468 51.3923 6.73407C51.022 7.10528 51.022 7.70747 51.3923 8.07868C58.0989 14.7853 58.0989 25.6987 51.3923 32.4053C51.022 32.7765 51.022 33.3786 51.3923 33.7498C51.5779 33.9354 51.8212 34.0278 52.0646 34.0278C52.3078 34.0278 52.5512 33.9346 52.7368 33.7498C60.1832 26.3017 60.1832 14.1823 52.7368 6.73407Z" fill="#F5F1F5" stroke="#F5F1F5" stroke-width="2"/>
<path d="M34.317 1C34.0839 1 33.8451 1.04365 33.6101 1.13759L12.4419 9.59797V9.61016C8.88511 9.71864 5.93337 12.2002 5.10956 15.5286C2.73627 16.218 1 18.4044 1 21C1 23.5957 2.73627 25.7821 5.10965 26.4714C5.93337 29.7999 8.88511 32.2814 12.4419 32.3899V32.4021L33.6101 40.8624C33.845 40.9563 34.084 41 34.317 41C35.3213 41 36.2157 40.1889 36.2157 39.0978V2.90223C36.2157 1.81125 35.3212 1 34.317 1ZM2.90043 21C2.90043 19.5668 3.69796 18.3162 4.87249 17.6689V24.3312C3.69796 23.6838 2.90043 22.4333 2.90043 21ZM6.82692 25.3487C6.80146 25.0986 6.77281 24.8493 6.77281 24.5924V17.4077C6.77281 17.1507 6.80146 16.9013 6.82692 16.6512C7.19021 13.8275 9.54888 11.6195 12.4419 11.5031V30.4969C9.54888 30.3805 7.19021 28.1726 6.82692 25.3487ZM34.3154 39.0978L14.3422 31.1151V10.885L34.3154 2.90269V39.0978Z" fill="#F5F1F5" stroke="#F5F1F5" stroke-width="2"/>
</svg>
