<svg width="24" height="24" viewBox="0 0 24 24" fill="none" xmlns="http://www.w3.org/2000/svg">
<mask id="path-1-inside-1_101_2885" fill="white">
<path d="M20.6286 15.9989C20.5508 15.9052 20.4744 15.8114 20.3994 15.7209C19.3682 14.4736 18.7443 13.7208 18.7443 10.1897C18.7443 8.36156 18.3069 6.86156 17.4449 5.73656C16.8093 4.90547 15.9501 4.275 14.8176 3.80906C14.803 3.80096 14.79 3.79032 14.7791 3.77766C14.3718 2.41359 13.2571 1.5 11.9999 1.5C10.7427 1.5 9.62849 2.41359 9.22115 3.77625C9.21027 3.78845 9.19744 3.79875 9.18318 3.80672C6.54036 4.89469 5.25599 6.98203 5.25599 10.1883C5.25599 13.7208 4.63302 14.4736 3.60083 15.7195C3.52583 15.81 3.44943 15.9019 3.37161 15.9975C3.17061 16.2399 3.04326 16.5348 3.00464 16.8473C2.96601 17.1598 3.01772 17.4769 3.15365 17.7609C3.44286 18.3703 4.05927 18.7486 4.76286 18.7486H19.2421C19.9424 18.7486 20.5546 18.3708 20.8447 17.7642C20.9813 17.4801 21.0335 17.1628 20.9952 16.8499C20.9569 16.537 20.8297 16.2417 20.6286 15.9989ZM11.9999 22.5C12.6773 22.4995 13.3418 22.3156 13.9232 21.9679C14.5045 21.6202 14.9809 21.1217 15.3018 20.5252C15.3169 20.4966 15.3244 20.4646 15.3234 20.4322C15.3225 20.3999 15.3133 20.3684 15.2966 20.3407C15.2799 20.313 15.2563 20.2901 15.2281 20.2742C15.2 20.2583 15.1682 20.25 15.1358 20.25H8.8649C8.83252 20.2499 8.80066 20.2582 8.77243 20.274C8.7442 20.2899 8.72055 20.3128 8.7038 20.3405C8.68704 20.3682 8.67774 20.3997 8.67682 20.4321C8.67588 20.4645 8.68335 20.4965 8.69849 20.5252C9.01936 21.1216 9.49567 21.6201 10.0769 21.9678C10.6581 22.3155 11.3226 22.4994 11.9999 22.5Z"/>
</mask>
<path d="M20.6286 15.9989L22.1692 14.7235L22.1676 14.7216L20.6286 15.9989ZM20.3994 15.7209L18.858 16.9953L18.8597 16.9974L20.3994 15.7209ZM17.4449 5.73656L15.8563 6.95156L15.8574 6.95301L17.4449 5.73656ZM14.8176 3.80906L13.8453 5.55684L13.948 5.61395L14.0566 5.65864L14.8176 3.80906ZM14.7791 3.77766L12.8627 4.34993L12.9842 4.75651L13.2602 5.07877L14.7791 3.77766ZM9.22115 3.77625L10.7143 5.10682L11.01 4.77496L11.1374 4.34907L9.22115 3.77625ZM9.18318 3.80672L9.94453 5.65614L10.0547 5.61077L10.1588 5.55263L9.18318 3.80672ZM3.60083 15.7195L5.14054 16.996L5.14097 16.9955L3.60083 15.7195ZM3.37161 15.9975L4.91118 17.2741L4.91708 17.267L4.92291 17.2598L3.37161 15.9975ZM3.15365 17.7609L4.96048 16.9034L4.95772 16.8976L3.15365 17.7609ZM20.8447 17.7642L19.042 16.898L19.0405 16.9012L20.8447 17.7642ZM11.9999 22.5L11.998 24.5L12.0015 24.5L11.9999 22.5ZM15.3018 20.5252L17.0631 21.4727L17.0664 21.4664L17.0698 21.4602L15.3018 20.5252ZM15.1358 20.25V22.25L15.1378 22.25L15.1358 20.25ZM8.8649 20.25L8.85788 22.25H8.8649V20.25ZM8.69849 20.5252L6.93051 21.4602L6.93383 21.4664L6.93719 21.4727L8.69849 20.5252ZM22.1676 14.7216C22.0422 14.5705 22.0765 14.6102 21.9391 14.4445L18.8597 16.9974C18.8724 17.0126 19.0595 17.2398 19.0897 17.2762L22.1676 14.7216ZM21.9408 14.4466C21.4143 13.8097 21.2179 13.5507 21.0653 13.1298C20.8976 12.6674 20.7443 11.8685 20.7443 10.1897H16.7443C16.7443 12.042 16.9029 13.385 17.305 14.4936C17.7221 15.6437 18.3533 16.3848 18.858 16.9953L21.9408 14.4466ZM20.7443 10.1897C20.7443 8.05065 20.231 6.08431 19.0324 4.52012L15.8574 6.95301C16.3829 7.63881 16.7443 8.67247 16.7443 10.1897H20.7443ZM19.0335 4.52156C18.1489 3.36491 16.9821 2.53694 15.5785 1.95948L14.0566 5.65864C14.918 6.01306 15.4696 6.44603 15.8563 6.95156L19.0335 4.52156ZM15.7898 2.06128C15.9826 2.16851 16.1546 2.30914 16.298 2.47654L13.2602 5.07877C13.4253 5.2715 13.6234 5.4334 13.8453 5.55684L15.7898 2.06128ZM16.6955 3.20538C16.0805 1.14601 14.2902 -0.5 11.9999 -0.5V3.5C12.224 3.5 12.663 3.68117 12.8627 4.34993L16.6955 3.20538ZM11.9999 -0.5C9.70969 -0.5 7.92001 1.14586 7.30493 3.20343L11.1374 4.34907C11.337 3.68132 11.7757 3.5 11.9999 3.5V-0.5ZM7.72797 2.44568C7.86528 2.29158 8.02738 2.1615 8.20757 2.06081L10.1588 5.55263C10.3675 5.43599 10.5553 5.28532 10.7143 5.10682L7.72797 2.44568ZM8.42183 1.9573C6.77353 2.63586 5.43175 3.6818 4.52521 5.15496C3.62983 6.60997 3.25599 8.32362 3.25599 10.1883H7.25599C7.25599 8.8467 7.52434 7.91355 7.93185 7.25133C8.32819 6.60727 8.95001 6.06555 9.94453 5.65614L8.42183 1.9573ZM3.25599 10.1883C3.25599 11.8682 3.10284 12.6674 2.93522 13.1297C2.78293 13.5498 2.58699 13.8083 2.06069 14.4436L5.14097 16.9955C5.64686 16.3848 6.2785 15.6439 6.69574 14.493C7.09766 13.3843 7.25599 12.0408 7.25599 10.1883H3.25599ZM2.06113 14.4431C1.989 14.5301 1.90536 14.6307 1.82032 14.7352L4.92291 17.2598C4.9935 17.1731 5.06267 17.0899 5.14054 16.996L2.06113 14.4431ZM1.83205 14.7209C1.38713 15.2574 1.10525 15.9102 1.01974 16.602L4.98953 17.0927C4.98128 17.1594 4.95409 17.2224 4.91118 17.2741L1.83205 14.7209ZM1.01974 16.602C0.934237 17.2937 1.0487 17.9955 1.34957 18.6243L4.95772 16.8976C4.98674 16.9583 4.99778 17.0259 4.98953 17.0927L1.01974 16.602ZM1.34682 18.6185C1.9851 19.9633 3.32957 20.7486 4.76286 20.7486V16.7486C4.77155 16.7486 4.80503 16.7517 4.84902 16.7787C4.89404 16.8063 4.93543 16.8506 4.96047 16.9034L1.34682 18.6185ZM4.76286 20.7486H19.2421V16.7486H4.76286V20.7486ZM19.2421 20.7486C20.6779 20.7486 22.0117 19.9593 22.6489 18.6273L19.0405 16.9012C19.0642 16.8517 19.104 16.8083 19.1495 16.7803C19.1943 16.7527 19.2301 16.7486 19.2421 16.7486V20.7486ZM22.6474 18.6304C22.9496 18.0016 23.0651 17.2994 22.9803 16.6069L19.01 17.0929C19.0018 17.0262 19.0129 16.9586 19.042 16.898L22.6474 18.6304ZM22.9803 16.6069C22.8956 15.9145 22.6141 15.2608 22.1692 14.7235L19.0881 17.2743C19.0452 17.2226 19.0181 17.1596 19.01 17.0929L22.9803 16.6069ZM12.0015 24.5C13.0399 24.4992 14.0586 24.2173 14.9497 23.6843L12.8966 20.2515C12.6251 20.4139 12.3146 20.4997 11.9983 20.5L12.0015 24.5ZM14.9497 23.6843C15.8409 23.1513 16.5711 22.3871 17.0631 21.4727L13.5405 19.5776C13.3906 19.8562 13.1681 20.0891 12.8966 20.2515L14.9497 23.6843ZM17.0698 21.4602C17.2462 21.1266 17.3333 20.7531 17.3227 20.376L13.3242 20.4884C13.3155 20.176 13.3876 19.8665 13.5338 19.5902L17.0698 21.4602ZM17.3227 20.376C17.3121 19.9989 17.2041 19.6309 17.0092 19.3078L13.5839 21.3735C13.4225 21.1058 13.333 20.8009 13.3242 20.4884L17.3227 20.376ZM17.0092 19.3078C16.8144 18.9847 16.5393 18.7175 16.2107 18.5322L14.2456 22.0162C13.9733 21.8626 13.7454 21.6412 13.5839 21.3735L17.0092 19.3078ZM16.2107 18.5322C15.8821 18.3468 15.5111 18.2496 15.1338 18.25L15.1378 22.25C14.8252 22.2503 14.5179 22.1698 14.2456 22.0162L16.2107 18.5322ZM15.1358 18.25H8.8649V22.25H15.1358V18.25ZM8.87192 18.25C8.49415 18.2487 8.12249 18.3452 7.79314 18.5302L9.75172 22.0179C9.47883 22.1711 9.17089 22.2511 8.85788 22.25L8.87192 18.25ZM7.79314 18.5302C7.46378 18.7151 7.18791 18.9822 6.99242 19.3055L10.4152 21.3755C10.2532 21.6433 10.0246 21.8646 9.75172 22.0179L7.79314 18.5302ZM6.99242 19.3055C6.79694 19.6287 6.68849 19.9971 6.67764 20.3747L10.676 20.4896C10.667 20.8024 10.5771 21.1076 10.4152 21.3755L6.99242 19.3055ZM6.67764 20.3747C6.66679 20.7523 6.75392 21.1263 6.93051 21.4602L10.4665 19.5901C10.6128 19.8668 10.685 20.1767 10.676 20.4896L6.67764 20.3747ZM6.93719 21.4727C7.42907 22.387 8.15922 23.1512 9.0502 23.6841L11.1036 20.2514C10.8321 20.089 10.6097 19.8562 10.4598 19.5776L6.93719 21.4727ZM9.0502 23.6841C9.94119 24.2171 10.9598 24.499 11.998 24.5L12.0018 20.5C11.6854 20.4997 11.3751 20.4138 11.1036 20.2514L9.0502 23.6841Z" fill="white" mask="url(#path-1-inside-1_101_2885)"/>
</svg>
