<svg width="32" height="32" viewBox="0 0 32 32" fill="none" xmlns="http://www.w3.org/2000/svg">
<path d="M27.4263 23.6466H25.0063L20.553 11.3759H22.7303L25.4236 19.3586C25.5236 19.6666 25.7876 20.5586 26.205 22.0413L26.601 20.712L27.041 19.3706L29.833 11.3653H31.9996L27.4263 23.6466ZM20.301 23.5586C19.6278 23.7441 18.9325 23.837 18.2343 23.8346C16.5943 23.8346 15.781 22.9106 15.781 21.0519V12.8613H14.3636V11.3759H15.8583V9.44128L17.8263 8.63862V11.388H20.1023V12.872H17.8396V20.6119C17.8396 21.2066 17.9383 21.612 18.125 21.8546C18.3116 22.0973 18.653 22.2066 19.125 22.2066C19.401 22.2066 19.785 22.152 20.3023 22.0533L20.301 23.5586ZM10.581 16.4346C10.6036 18.7866 12.6476 19.5786 12.6703 19.5893C12.6476 19.6453 12.3396 20.712 11.593 21.7999C10.9436 22.7466 10.273 23.6906 9.2063 23.7133C8.1623 23.7346 7.83297 23.0973 6.63297 23.0973C5.4463 23.0973 5.07297 23.6906 4.0823 23.7346C3.07164 23.768 2.2903 22.7013 1.63164 21.7559C0.300971 19.8213 -0.721696 16.292 0.652971 13.916C1.33297 12.7293 2.5543 11.9813 3.8743 11.9693C4.8743 11.948 5.83164 12.652 6.44764 12.652C7.0623 12.652 8.21697 11.8159 9.4263 11.9373C9.93297 11.9586 11.3623 12.1466 12.2743 13.476C12.197 13.52 10.5703 14.4666 10.581 16.4346ZM8.62364 10.6506C9.1623 9.99062 9.53697 9.07728 9.43697 8.16528C8.65697 8.19862 7.71164 8.68262 7.13964 9.34262C6.63297 9.92528 6.19297 10.8599 6.3143 11.7506C7.18364 11.8173 8.08497 11.2999 8.62364 10.6506Z" fill="#D883FF"/>
</svg>
