<svg width="34" height="35" viewBox="0 0 34 35" fill="none" xmlns="http://www.w3.org/2000/svg">
<path d="M16.6667 0C25.8717 0 33.3333 7.46167 33.3333 16.6667V22.94C33.3333 23.5592 33.1608 24.1661 32.8353 24.6927C32.5097 25.2194 32.0439 25.6449 31.49 25.9217L26.6667 28.3333V30C26.6667 31.2754 26.1795 32.5025 25.3045 33.4304C24.4296 34.3583 23.2332 34.9168 21.96 34.9917L21.5833 35C21.62 34.8185 21.6445 34.6348 21.6567 34.45L21.6667 34.1667V33.3333C21.6669 32.4924 21.3493 31.6824 20.7775 31.0658C20.2057 30.4491 19.4219 30.0714 18.5833 30.0083L18.3333 30H15C14.159 29.9997 13.3491 30.3173 12.7324 30.8892C12.1158 31.461 11.7381 32.2447 11.675 33.0833L11.6667 33.3333V34.1667C11.6667 34.4517 11.695 34.7317 11.75 35H11.6667C10.3406 35 9.06882 34.4732 8.13113 33.5355C7.19345 32.5979 6.66667 31.3261 6.66667 30V28.3333L1.84333 25.9217C1.28922 25.6448 0.82323 25.219 0.497632 24.692C0.172033 24.165 -0.00028829 23.5578 3.6204e-07 22.9383V16.6667C3.6204e-07 7.46167 7.46167 0 16.6667 0ZM16.6667 3.33333C13.2026 3.33337 9.87457 4.68156 7.38716 7.09245C4.89975 9.50334 3.44825 12.7876 3.34 16.25L3.33333 16.6667V22.94L10 26.2733V28.925L10.125 28.785C11.3055 27.5178 12.9336 26.7609 14.6633 26.675L15 26.6667L18.455 26.6683L18.8267 26.685C20.4917 26.8083 21.9767 27.535 23.0767 28.6467L23.3333 28.925V26.2733L30 22.94V16.6667C30 13.1304 28.5952 9.73906 26.0948 7.23858C23.5943 4.73809 20.2029 3.33333 16.6667 3.33333ZM10 15C10.8841 15 11.7319 15.3512 12.357 15.9763C12.9821 16.6014 13.3333 17.4493 13.3333 18.3333C13.3333 19.2174 12.9821 20.0652 12.357 20.6904C11.7319 21.3155 10.8841 21.6667 10 21.6667C9.11595 21.6667 8.2681 21.3155 7.64298 20.6904C7.01786 20.0652 6.66667 19.2174 6.66667 18.3333C6.66667 17.4493 7.01786 16.6014 7.64298 15.9763C8.2681 15.3512 9.11595 15 10 15ZM23.3333 15C24.2174 15 25.0652 15.3512 25.6904 15.9763C26.3155 16.6014 26.6667 17.4493 26.6667 18.3333C26.6667 19.2174 26.3155 20.0652 25.6904 20.6904C25.0652 21.3155 24.2174 21.6667 23.3333 21.6667C22.4493 21.6667 21.6014 21.3155 20.9763 20.6904C20.3512 20.0652 20 19.2174 20 18.3333C20 17.4493 20.3512 16.6014 20.9763 15.9763C21.6014 15.3512 22.4493 15 23.3333 15Z" fill="#121212"/>
</svg>
