<svg width="24" height="28" viewBox="0 0 24 28" fill="none" xmlns="http://www.w3.org/2000/svg">
<mask id="path-1-inside-1_101_1918" fill="white">
<path d="M20.6288 18.565C20.551 18.4562 20.4746 18.3474 20.3995 18.2424C19.3683 16.795 18.7444 15.9215 18.7444 11.824C18.7444 9.70262 18.307 7.96203 17.445 6.65658C16.8094 5.69218 15.9502 4.96058 14.8177 4.41991C14.8031 4.4105 14.7901 4.39816 14.7792 4.38347C14.3719 2.80061 13.2572 1.74048 12 1.74048C10.7428 1.74048 9.62861 2.80061 9.22127 4.38183C9.2104 4.39599 9.19756 4.40794 9.1833 4.41719C6.54049 5.67967 5.25611 8.10182 5.25611 11.8223C5.25611 15.9215 4.63314 16.795 3.60096 18.2408C3.52596 18.3458 3.44955 18.4524 3.37174 18.5634C3.17074 18.8446 3.04339 19.1868 3.00476 19.5495C2.96613 19.9121 3.01784 20.28 3.15377 20.6096C3.44299 21.3168 4.05939 21.7557 4.76299 21.7557H19.2422C19.9425 21.7557 20.5547 21.3173 20.8449 20.6134C20.9814 20.2838 21.0336 19.9156 20.9953 19.5525C20.957 19.1894 20.8298 18.8467 20.6288 18.565ZM12 26.1088C12.6774 26.1082 13.342 25.8948 13.9233 25.4914C14.5046 25.0879 14.981 24.5094 15.3019 23.8172C15.317 23.7841 15.3245 23.7469 15.3236 23.7094C15.3227 23.6719 15.3134 23.6353 15.2967 23.6032C15.28 23.571 15.2564 23.5444 15.2283 23.526C15.2001 23.5076 15.1683 23.4979 15.136 23.4979H8.86502C8.83264 23.4978 8.80078 23.5074 8.77255 23.5258C8.74432 23.5442 8.72067 23.5708 8.70392 23.6029C8.68716 23.6351 8.67787 23.6717 8.67694 23.7093C8.67601 23.7468 8.68347 23.784 8.69861 23.8172C9.01949 24.5094 9.49579 25.0878 10.077 25.4913C10.6583 25.8947 11.3227 26.1081 12 26.1088Z"/>
</mask>
<path d="M20.6288 18.565L22.2569 17.4034L22.2555 17.4014L20.6288 18.565ZM20.3995 18.2424L18.7707 19.403L18.7722 19.4051L20.3995 18.2424ZM17.445 6.65658L15.7751 7.7572L15.7761 7.75865L17.445 6.65658ZM14.8177 4.41991L13.733 6.10024L13.8405 6.16964L13.956 6.22477L14.8177 4.41991ZM14.7792 4.38347L12.8423 4.88192L12.9392 5.25847L13.1702 5.57128L14.7792 4.38347ZM9.22127 4.38183L10.8075 5.59996L11.0562 5.27614L11.158 4.88077L9.22127 4.38183ZM9.1833 4.41719L10.0454 6.22185L10.1625 6.1659L10.2714 6.09528L9.1833 4.41719ZM3.60096 18.2408L5.22832 19.4034L5.2287 19.4029L3.60096 18.2408ZM3.37174 18.5634L4.99897 19.7261L5.00414 19.7189L5.00924 19.7116L3.37174 18.5634ZM3.15377 20.6096L5.00492 19.8525L5.00271 19.8471L3.15377 20.6096ZM20.8449 20.6134L18.997 19.8483L18.9958 19.8512L20.8449 20.6134ZM12 26.1088L11.9979 28.1088L12.0019 28.1088L12 26.1088ZM15.3019 23.8172L17.1164 24.6585L17.1218 24.6467L15.3019 23.8172ZM15.136 23.4979V25.4979L15.1383 25.4979L15.136 23.4979ZM8.86502 23.4979L8.85687 25.4979H8.86502V23.4979ZM8.69861 23.8172L6.87867 24.6467L6.88413 24.6585L8.69861 23.8172ZM22.2555 17.4014C22.136 17.2344 22.1565 17.2612 22.0269 17.0798L18.7722 19.4051C18.7926 19.4336 18.9659 19.678 19.0021 19.7285L22.2555 17.4014ZM22.0284 17.0819C21.5098 16.354 21.2738 16.005 21.0942 15.4304C20.899 14.8058 20.7444 13.8003 20.7444 11.824H16.7444C16.7444 13.9452 16.9018 15.4252 17.2763 16.6236C17.6665 17.872 18.2581 18.6834 18.7707 19.403L22.0284 17.0819ZM20.7444 11.824C20.7444 9.44701 20.2564 7.28463 19.114 5.55451L15.7761 7.75865C16.3577 8.63943 16.7444 9.95824 16.7444 11.824H20.7444ZM19.1149 5.55595C18.2619 4.26168 17.1111 3.29859 15.6793 2.61505L13.956 6.22477C14.7892 6.62258 15.3569 7.12267 15.7751 7.7572L19.1149 5.55595ZM15.9023 2.73958C16.1016 2.8682 16.2633 3.02634 16.3883 3.19565L13.1702 5.57128C13.3169 5.76999 13.5046 5.95281 13.733 6.10024L15.9023 2.73958ZM16.7161 3.88501C16.1715 1.7687 14.4873 -0.259521 12 -0.259521V3.74048C12.0401 3.74048 12.1566 3.75269 12.3301 3.91767C12.51 4.0888 12.7192 4.40348 12.8423 4.88192L16.7161 3.88501ZM12 -0.259521C9.51285 -0.259521 7.8292 1.7685 7.2845 3.8829L11.158 4.88077C11.2811 4.40311 11.4901 4.08868 11.6701 3.91761C11.8435 3.75268 11.9599 3.74048 12 3.74048V-0.259521ZM7.63502 3.16371C7.75582 3.00641 7.90904 2.8598 8.09518 2.7391L10.2714 6.09528C10.4861 5.95609 10.665 5.78557 10.8075 5.59996L7.63502 3.16371ZM8.32121 2.61253C6.63797 3.41661 5.3266 4.63012 4.46173 6.26098C3.61336 7.86073 3.25611 9.74399 3.25611 11.8223H7.25611C7.25611 10.1802 7.54105 8.9921 7.99557 8.13502C8.43359 7.30905 9.08581 6.68024 10.0454 6.22185L8.32121 2.61253ZM3.25611 11.8223C3.25611 13.7998 3.1017 14.8057 2.9066 15.4302C2.72731 16.0041 2.49165 16.3525 1.97321 17.0787L5.2287 19.4029C5.74245 18.6833 6.33437 17.8721 6.72461 16.623C7.09904 15.4245 7.25611 13.944 7.25611 11.8223H3.25611ZM1.97359 17.0782C1.90111 17.1796 1.81836 17.2951 1.73423 17.4151L5.00924 19.7116C5.08073 19.6097 5.1508 19.5119 5.22832 19.4034L1.97359 17.0782ZM1.7445 17.4006C1.33193 17.9779 1.08908 18.6517 1.01601 19.3377L4.99351 19.7613C4.99538 19.7437 4.99902 19.7308 5.00178 19.7234C5.00455 19.716 5.00511 19.7176 4.99897 19.7261L1.7445 17.4006ZM1.01601 19.3377C0.942927 20.0237 1.03885 20.7272 1.30482 21.3721L5.00271 19.8471C4.99682 19.8329 4.98933 19.8005 4.99351 19.7613L1.01601 19.3377ZM1.30262 21.3668C1.86508 22.742 3.16048 23.7557 4.76299 23.7557V19.7557C4.83725 19.7557 4.91101 19.7816 4.96318 19.8188C5.01227 19.8537 5.01547 19.8783 5.00491 19.8525L1.30262 21.3668ZM4.76299 23.7557H19.2422V19.7557H4.76299V23.7557ZM19.2422 23.7557C20.8466 23.7557 22.1324 22.7377 22.6939 21.3757L18.9958 19.8512C18.9842 19.8795 18.9863 19.8557 19.0355 19.8206C19.0883 19.7829 19.1643 19.7557 19.2422 19.7557V23.7557ZM22.6927 21.3786C22.9599 20.7334 23.0567 20.0294 22.9842 19.3427L19.0063 19.7623C19.0105 19.8017 19.0029 19.8341 18.997 19.8483L22.6927 21.3786ZM22.9842 19.3427C22.9118 18.6561 22.6693 17.9815 22.2569 17.4034L19.0007 19.7266C18.9946 19.7181 18.9952 19.7166 18.998 19.7241C19.0008 19.7316 19.0044 19.7446 19.0063 19.7623L22.9842 19.3427ZM12.0019 28.1088C13.1051 28.1078 14.1638 27.7589 15.0636 27.1344L12.7829 23.8483C12.5201 24.0307 12.2497 24.1086 11.9981 24.1088L12.0019 28.1088ZM15.0636 27.1344C15.9597 26.5126 16.6581 25.647 17.1164 24.6585L13.4874 22.976C13.3039 23.3719 13.0495 23.6633 12.7829 23.8483L15.0636 27.1344ZM17.1218 24.6467C17.2661 24.33 17.331 23.9918 17.323 23.661L13.3242 23.7578C13.318 23.5021 13.3679 23.2381 13.482 22.9878L17.1218 24.6467ZM17.323 23.661C17.315 23.3302 17.2337 22.9932 17.0714 22.6809L13.5221 24.5255C13.3931 24.2773 13.3304 24.0136 13.3242 23.7578L17.323 23.661ZM17.0714 22.6809C16.9088 22.368 16.6605 22.0731 16.3235 21.8526L14.133 25.1994C13.8524 25.0158 13.6512 24.774 13.5221 24.5255L17.0714 22.6809ZM16.3235 21.8526C15.9833 21.6299 15.5724 21.4974 15.1336 21.4979L15.1383 25.4979C14.7642 25.4984 14.4169 25.3853 14.133 25.1994L16.3235 21.8526ZM15.136 21.4979H8.86502V25.4979H15.136V21.4979ZM8.87316 21.498C8.43383 21.4962 8.02195 21.6278 7.68064 21.8502L9.86447 25.2014C9.57962 25.3871 9.23145 25.4995 8.85687 25.4979L8.87316 21.498ZM7.68064 21.8502C7.34267 22.0704 7.09354 22.3654 6.93034 22.6786L10.4775 24.5273C10.3478 24.7761 10.146 25.018 9.86447 25.2014L7.68064 21.8502ZM6.93034 22.6786C6.76739 22.9912 6.68575 23.3286 6.67755 23.6598L10.6763 23.7588C10.67 24.0148 10.6069 24.2789 10.4775 24.5273L6.93034 22.6786ZM6.67755 23.6598C6.66935 23.991 6.73424 24.3297 6.87871 24.6467L10.5185 22.9878C10.6327 23.2384 10.6827 23.5027 10.6763 23.7588L6.67755 23.6598ZM6.88413 24.6585C7.34237 25.6469 8.04069 26.5124 8.93658 27.1342L11.2175 23.8483C10.9509 23.6632 10.6966 23.3718 10.5131 22.976L6.88413 24.6585ZM8.93658 27.1342C9.83624 27.7587 10.8948 28.1076 11.9979 28.1088L12.0022 24.1088C11.7507 24.1086 11.4803 24.0307 11.2175 23.8483L8.93658 27.1342Z" fill="white" mask="url(#path-1-inside-1_101_1918)"/>
</svg>
