<svg width="42" height="42" viewBox="0 0 42 42" fill="none" xmlns="http://www.w3.org/2000/svg">
<path d="M23.1883 40.9996H18.9837C18.3511 40.9996 18.1304 41.001 15.9746 35.5508L14.3098 34.8603C9.77352 36.9604 9.23653 36.9604 9.05701 36.9604H8.70988L8.41387 36.701L5.43331 33.7251C4.98003 33.2633 4.82296 33.103 7.15531 27.7241L6.47646 26.0851C1.00023 24.0825 1.00023 23.8501 1.00023 23.1902V18.9835C1.00023 18.3244 1.00023 18.1163 6.45831 15.9626L7.13716 14.32C4.66998 9.02293 4.83974 8.85846 5.32638 8.39091L8.53173 5.18402L8.92979 5.17128C9.4137 5.17128 11.2091 5.83974 14.2706 7.15873L15.9305 6.47096C17.929 0.999433 18.1743 1.00023 18.8048 1.00023H23.0094C23.6392 1.00023 23.8607 1.00103 26.0165 6.45264L27.684 7.13822C32.2133 5.04085 32.7573 5.04085 32.9382 5.04085H33.2832L33.5792 5.29593L36.5597 8.26686C37.013 8.73361 37.1679 8.8933 34.8356 14.2744L35.5164 15.9228C40.9996 17.9168 40.9996 18.1484 40.9996 18.8097V23.0114C40.9996 23.655 40.9996 23.8816 35.5345 26.0365L34.86 27.6804C37.3147 32.9546 37.1525 33.1199 36.693 33.5924L33.4633 36.8192L33.0631 36.8306C32.5813 36.8306 30.79 36.1613 27.7328 34.8409L26.0631 35.5293C24.0591 40.9996 23.8314 40.9996 23.1883 40.9996ZM19.4208 39.2629H22.7372C23.1176 38.4712 23.9403 36.3724 24.5989 34.5646L24.7315 34.2047L27.7511 32.9604L28.0758 33.1008C29.8755 33.884 32.0025 34.7519 32.8314 35.0186L35.1618 32.6926C34.8658 31.8553 33.9685 29.8065 33.1591 28.0783L32.9957 27.727L34.2451 24.6834L34.5852 24.5494C36.403 23.8354 38.5092 22.9538 39.2962 22.5518V19.2842C38.5001 18.9023 36.4023 18.0877 34.5944 17.4335L34.2405 17.3045L32.9829 14.2579L33.1329 13.9144C33.9066 12.1329 34.7671 10.0313 35.0428 9.18462L32.7062 6.85368C31.952 7.12229 29.8402 8.04583 28.0588 8.87538L27.7271 9.0307L24.7075 7.78856L24.5727 7.44587C23.8589 5.62787 22.9721 3.51994 22.5721 2.73958H19.258C18.8754 3.5291 18.0555 5.62867 17.3985 7.43592L17.2679 7.79374L14.2567 9.04225L13.9321 8.90047C12.1283 8.11871 9.99694 7.25212 9.16531 6.9857L6.83901 9.31306C7.13092 10.149 8.03104 12.1964 8.83769 13.9246L9.00316 14.2766L7.74752 17.3188L7.40956 17.452C5.59468 18.1653 3.492 19.0462 2.70486 19.4467V22.7185C3.50097 23.1018 5.59663 23.9186 7.40331 24.5755L7.75454 24.7059L9.01233 27.7424L8.86228 28.0851C8.0886 29.8652 7.22887 31.964 6.95237 32.8091L9.2939 35.1472C10.0459 34.8764 12.155 33.9529 13.9385 33.1225L14.2724 32.9664L17.2857 34.2163L17.4205 34.559C18.1365 36.3776 19.0206 38.4819 19.4208 39.2629ZM20.9997 28.0004C17.1442 28.0004 14.0046 24.8599 14.0046 20.9994C14.0046 17.142 17.1436 14.0034 20.9997 14.0034C24.8531 14.0034 27.9851 17.1426 27.9851 20.9994C27.9851 24.8599 24.8531 28.0004 20.9997 28.0004ZM20.9997 15.7418C18.0814 15.7418 15.7093 18.1006 15.7093 20.9996C15.7093 23.9007 18.0808 26.2617 20.9997 26.2617C23.9132 26.2617 26.2834 23.9007 26.2834 20.9996C26.2826 18.1006 23.9132 15.7418 20.9997 15.7418Z" fill="#F5F1F5" stroke="#F5F1F5" stroke-width="2"/>
</svg>
