<svg width="32" height="32" viewBox="0 0 32 32" fill="none" xmlns="http://www.w3.org/2000/svg">
<path d="M21.7867 13.1374L18.7813 16.1428V13.1294H16.1733V20.7881H18.7827V17.6814L21.92 20.7881H25.2L21.216 16.8014L24.5187 13.5001V18.0481C24.5187 19.5588 25.424 20.9508 27.7093 20.9508C28.796 20.9508 29.7893 20.3348 30.272 19.7774L31.4453 20.7894H32V13.1361H29.3987V18.0934C29.1053 18.6054 28.6947 18.9294 28.0627 18.9294C27.42 18.9294 27.1253 18.5481 27.1253 17.3321V13.1374H21.7867ZM15.6653 16.9628C15.6685 17.7552 15.4365 18.5308 14.9987 19.1914C14.561 19.8519 13.9371 20.3678 13.206 20.6737C12.475 20.9796 11.6696 21.0617 10.8919 20.9097C10.1141 20.7578 9.39894 20.3785 8.83681 19.8199C8.27469 19.2613 7.89089 18.5485 7.73399 17.7718C7.57709 16.995 7.65414 16.1891 7.95538 15.4562C8.25663 14.7232 8.76853 14.0961 9.42632 13.6541C10.0841 13.2122 10.8582 12.9753 11.6507 12.9734C12.1762 12.971 12.6971 13.0722 13.1834 13.2713C13.6698 13.4705 14.1121 13.7636 14.485 14.1339C14.858 14.5042 15.1542 14.9445 15.3567 15.4294C15.5592 15.9144 15.6641 16.4345 15.6653 16.9601M11.6507 14.8668C10.96 14.8668 10.376 15.8054 10.376 16.9628C10.376 18.1188 10.96 19.0561 11.6507 19.0561C12.3547 19.0561 12.9413 18.1201 12.9413 16.9628C12.9413 15.8041 12.3573 14.8668 11.6507 14.8668ZM8.70933 20.7961H5.75067L3.4 17.5374H2.608V20.7908H0V11.0134H3.73333C5.888 11.0134 7.64667 12.4801 7.64667 14.2801C7.64667 15.3814 6.97333 16.3628 5.94933 16.9641L8.70933 20.7961ZM5.04267 14.2801C5.04372 14.0652 5.00239 13.8522 4.92105 13.6533C4.8397 13.4544 4.71994 13.2735 4.5686 13.1209C4.41727 12.9683 4.23734 12.8471 4.03911 12.7642C3.84087 12.6812 3.62823 12.6381 3.41333 12.6374H2.608V15.9081H3.41467C3.84578 15.9063 4.25871 15.7342 4.56342 15.4292C4.86814 15.1243 5.03993 14.7112 5.04133 14.2801H5.04267Z" fill="#D883FF"/>
</svg>
