<svg width="24" height="24" viewBox="0 0 24 24" fill="none" xmlns="http://www.w3.org/2000/svg">
<g clip-path="url(#clip0_101_2157)">
<path d="M15.85 8.16702C15.8366 8.16703 15.8232 8.16837 15.81 8.17101C15.13 8.36101 15.267 9.31902 14.029 9.40102H13.909C13.8915 9.4007 13.8741 9.40238 13.857 9.40602H13.856C13.8033 9.41866 13.7564 9.44876 13.723 9.49143C13.6896 9.5341 13.6716 9.58682 13.672 9.64102V10.731C13.672 10.865 13.778 10.972 13.909 10.972H14.554V15.595C14.554 15.727 14.658 15.833 14.787 15.833H15.845C15.9074 15.8322 15.967 15.8067 16.0107 15.7621C16.0543 15.7175 16.0785 15.6574 16.078 15.595V10.972H16.678C16.808 10.972 16.914 10.865 16.914 10.731V9.64102C16.9143 9.57797 16.8896 9.51738 16.8454 9.47242C16.8012 9.42747 16.741 9.40181 16.678 9.40102H16.066V8.38601C16.0663 8.35739 16.0609 8.32899 16.0502 8.30244C16.0395 8.27589 16.0236 8.25171 16.0036 8.23128C15.9835 8.21085 15.9596 8.19457 15.9333 8.18337C15.9069 8.17217 15.8786 8.16628 15.85 8.16602V8.16702ZM20.075 9.33702C19.677 9.33702 19.313 9.48702 19.033 9.73202V9.60802C19.0295 9.54804 19.0034 9.49161 18.96 9.45006C18.9166 9.40852 18.8591 9.38492 18.799 9.38402H17.729C17.6657 9.38507 17.6054 9.41109 17.5612 9.45642C17.517 9.50175 17.4925 9.56271 17.493 9.62602V15.546C17.4925 15.6093 17.517 15.6703 17.5612 15.7156C17.6054 15.7609 17.6657 15.787 17.729 15.788H18.799C18.919 15.788 19.016 15.697 19.032 15.579V11.329C19.0279 11.2259 19.0645 11.1254 19.1339 11.049C19.2033 10.9727 19.3 10.9267 19.403 10.921H19.599C19.6817 10.9275 19.7605 10.9588 19.825 11.011C19.8715 11.0499 19.9087 11.0988 19.9338 11.154C19.9589 11.2092 19.9713 11.2694 19.97 11.33V15.404L19.974 15.559C19.9737 15.6223 19.9985 15.6832 20.0429 15.7283C20.0873 15.7735 20.1477 15.7992 20.211 15.8H21.281C21.3422 15.799 21.4006 15.7746 21.4443 15.7319C21.4881 15.6891 21.5137 15.6311 21.516 15.57L21.515 11.324C21.515 11.184 21.577 11.058 21.689 10.984C21.7476 10.9453 21.815 10.9219 21.885 10.916H22.083C22.313 10.936 22.453 11.116 22.453 11.324C22.458 12.72 22.457 14.124 22.457 15.548C22.4567 15.6113 22.4815 15.6722 22.5259 15.7173C22.5703 15.7625 22.6307 15.7882 22.694 15.789H23.764C23.894 15.789 24 15.681 24 15.548V11.005C24 10.695 23.966 10.563 23.92 10.428C23.8134 10.1115 23.6106 9.83632 23.3398 9.64087C23.069 9.44543 22.7439 9.33953 22.41 9.33802H22.395C22.179 9.33819 21.9653 9.38265 21.7672 9.46864C21.5691 9.55464 21.3907 9.68036 21.243 9.83802C20.952 9.53002 20.543 9.33802 20.09 9.33802L20.075 9.33702ZM0.232009 9.40001C0.201279 9.40028 0.170902 9.40659 0.142612 9.41859C0.114321 9.43059 0.0886723 9.44805 0.0671289 9.46996C0.0455855 9.49188 0.0285697 9.51782 0.0170531 9.54631C0.0055366 9.57481 -0.000255148 9.60529 8.62044e-06 9.63601V15.56C8.62044e-06 15.692 0.0960086 15.798 0.216009 15.801H1.30601C1.43601 15.801 1.54301 15.694 1.54301 15.561L1.54701 13.903H2.57001C3.42701 13.903 4.02301 13.298 4.02301 12.422V10.884C4.02301 10.007 3.42701 9.40001 2.57001 9.40001H0.232009ZM9.26401 9.40001C9.23262 9.40028 9.20159 9.40672 9.1727 9.41897C9.1438 9.43122 9.1176 9.44905 9.09559 9.47143C9.07359 9.49381 9.0562 9.5203 9.04443 9.5494C9.03267 9.5785 9.02674 9.60963 9.02701 9.64102V12.111C9.02701 13.051 9.68401 13.719 10.606 13.719H11.281C11.281 13.719 11.297 13.719 11.318 13.723C11.3796 13.7306 11.4363 13.7606 11.4772 13.8072C11.5181 13.8539 11.5405 13.914 11.54 13.976C11.54 14.106 11.444 14.211 11.321 14.227L11.303 14.231L11 14.237H9.73901C9.67597 14.2378 9.6158 14.2635 9.57159 14.3084C9.52739 14.3534 9.50274 14.414 9.50301 14.477V15.567C9.50247 15.6303 9.52697 15.6913 9.57118 15.7366C9.61538 15.7819 9.6757 15.808 9.73901 15.809H11.489C12.409 15.809 13.066 15.14 13.066 14.201V9.64102C13.0663 9.57797 13.0416 9.51738 12.9974 9.47242C12.9532 9.42747 12.893 9.40181 12.83 9.40102H11.76C11.697 9.40181 11.6368 9.42747 11.5926 9.47242C11.5484 9.51738 11.5237 9.57797 11.524 9.64102C11.519 10.428 11.524 11.166 11.524 11.896C11.5232 11.9621 11.4966 12.0252 11.4499 12.0719C11.4032 12.1186 11.3401 12.1452 11.274 12.146H10.825C10.7581 12.1452 10.6942 12.1179 10.6473 12.0702C10.6005 12.0224 10.5745 11.9579 10.575 11.891C10.58 11.137 10.57 10.391 10.57 9.64102C10.5703 9.57797 10.5456 9.51738 10.5014 9.47242C10.4572 9.42747 10.397 9.40181 10.334 9.40102L9.26401 9.40001ZM5.26001 9.40602C5.22954 9.40522 5.19921 9.41043 5.17076 9.42136C5.1423 9.43229 5.11628 9.44871 5.09418 9.4697C5.07208 9.49069 5.05433 9.51583 5.04194 9.54368C5.02956 9.57153 5.02279 9.60155 5.02201 9.63202V10.655C5.02201 10.787 5.13501 10.895 5.27401 10.895H6.68701C6.79901 10.912 6.88701 10.995 6.90001 11.125V11.265C6.88701 11.389 6.80001 11.479 6.69301 11.489H5.99301C5.06301 11.489 4.39901 12.119 4.39901 13.004V14.273C4.39901 15.153 4.96901 15.779 5.89401 15.779H7.83401C8.18201 15.779 8.46401 15.509 8.46401 15.179V11.043C8.46401 10.039 7.95601 9.40602 6.74401 9.40602H5.26001ZM1.54701 10.978H2.22501C2.36401 10.978 2.47501 11.093 2.47501 11.234V12.07C2.4754 12.1032 2.46925 12.1362 2.4569 12.1671C2.44455 12.1979 2.42625 12.226 2.40303 12.2498C2.37982 12.2736 2.35215 12.2925 2.3216 12.3056C2.29106 12.3187 2.25823 12.3256 2.22501 12.326H2.12501C1.93301 12.328 1.73901 12.326 1.54701 12.326V10.978ZM6.21701 12.955H6.66201C6.80101 12.955 6.91401 13.063 6.91401 13.195V14.127C6.91366 14.153 6.90893 14.1787 6.90001 14.203C6.8822 14.2516 6.84974 14.2935 6.80711 14.3229C6.76448 14.3523 6.71378 14.3677 6.66201 14.367H6.21701C6.15183 14.3684 6.08877 14.3439 6.04157 14.2989C5.99436 14.254 5.96684 14.1922 5.96501 14.127V13.194C5.96501 13.062 6.07801 12.955 6.21701 12.955Z" fill="white"/>
</g>
<defs>
<clipPath id="clip0_101_2157">
<rect width="24" height="24" fill="white"/>
</clipPath>
</defs>
</svg>
