<svg width="32" height="32" viewBox="0 0 32 32" fill="none" xmlns="http://www.w3.org/2000/svg">
<path d="M26.928 20.1601C27.2813 20.6094 26.536 22.4667 26.2053 23.2974C26.1027 23.5507 26.3187 23.6521 26.548 23.4614C28.0227 22.2267 28.4013 19.6387 28.1027 19.2627C27.8013 18.8934 25.2227 18.5747 23.648 19.6814C23.404 19.8507 23.4467 20.0867 23.7147 20.0534C24.6013 19.9467 26.5773 19.7107 26.928 20.1601ZM25.784 21.4681C23.032 23.4987 19.0427 24.5787 15.608 24.5787C10.7933 24.5787 6.45867 22.8001 3.17867 19.8387C2.92 19.6041 3.152 19.2867 3.45867 19.4654C6.99867 21.5254 11.3773 22.7681 15.896 22.7681C18.9453 22.7681 22.3 22.1334 25.3827 20.8241C25.8467 20.6281 26.24 21.1321 25.784 21.4681ZM28.4947 17.2614C28.4022 17.268 28.3096 17.2495 28.2267 17.2081C28.172 17.1734 28.1107 17.0747 28.0493 16.9081L25.7373 11.1014C25.7187 11.0487 25.6983 10.9967 25.676 10.9454C25.6558 10.9001 25.6454 10.851 25.6453 10.8014C25.6453 10.6894 25.7107 10.6307 25.84 10.6307H26.6133C26.744 10.6307 26.8333 10.6494 26.8867 10.6841C26.94 10.7187 26.996 10.8201 27.056 10.9854L28.848 16.0827L30.6387 10.9854C30.7 10.8201 30.7573 10.7187 30.8093 10.6841C30.8942 10.6425 30.9884 10.6241 31.0827 10.6307H31.8027C31.936 10.6307 32 10.6894 32 10.8014C31.9979 10.851 31.9866 10.8999 31.9667 10.9454C31.9453 10.9987 31.924 11.0494 31.908 11.1014L29.6053 16.9081C29.5453 17.0734 29.4853 17.1734 29.4293 17.2081C29.3464 17.2495 29.2538 17.268 29.1613 17.2614H28.4947ZM23.636 17.3521C22.3973 17.3521 21.78 16.7347 21.78 15.4961V11.6521H20.8387C20.6653 11.6521 20.576 11.5641 20.576 11.3907V11.0627C20.5718 10.9923 20.5931 10.9227 20.636 10.8667C20.676 10.8254 20.7507 10.7934 20.864 10.7774L21.82 10.6574L21.9893 9.03739C22.0067 8.86405 22.0987 8.77605 22.2653 8.77605H22.812C22.9853 8.77605 23.0733 8.86405 23.0733 9.03739V10.6321H24.7747C24.948 10.6321 25.0347 10.7187 25.0347 10.8947V11.3907C25.0347 11.5641 24.9493 11.6521 24.7747 11.6521H23.0733V15.4307C23.0733 15.7547 23.1467 15.9787 23.2893 16.1107C23.4333 16.2414 23.68 16.3067 24.0293 16.3067C24.1947 16.3067 24.3987 16.2854 24.6427 16.2414C24.7747 16.2147 24.8613 16.2014 24.9053 16.2014C24.9747 16.2014 25.0227 16.2201 25.0493 16.2601C25.076 16.3001 25.088 16.3627 25.088 16.4494V16.8041C25.0934 16.8918 25.0749 16.9793 25.0347 17.0574C25 17.1147 24.9307 17.1614 24.8253 17.1947C24.439 17.3063 24.0381 17.3593 23.636 17.3521ZM17.416 13.3841C17.424 13.3147 17.4307 13.2014 17.4307 13.0441C17.4307 12.5121 17.3053 12.1134 17.0573 11.8427C16.8093 11.5707 16.444 11.4347 15.9667 11.4347C15.4173 11.4347 14.9907 11.5987 14.684 11.9267C14.38 12.2534 14.204 12.7401 14.1613 13.3841H17.416ZM16.16 17.4774C15.0893 17.4774 14.2787 17.1814 13.728 16.5881C13.1787 15.9961 12.9067 15.1187 12.9067 13.9587C12.9067 12.8521 13.1787 11.9921 13.728 11.3761C14.2787 10.7627 15.0453 10.4547 16.032 10.4547C16.8587 10.4547 17.496 10.6894 17.9413 11.1534C18.384 11.6214 18.608 12.2814 18.608 13.1361C18.608 13.4161 18.5853 13.6987 18.5413 13.9867C18.5227 14.0894 18.496 14.1601 18.456 14.1947C18.4173 14.2307 18.3533 14.2481 18.2667 14.2481H14.16C14.1773 14.9987 14.3653 15.5507 14.7173 15.9081C15.0707 16.2654 15.616 16.4454 16.3573 16.4454C16.6187 16.4454 16.8707 16.4267 17.1093 16.3921C17.4172 16.3395 17.7211 16.2655 18.0187 16.1707L18.1747 16.1241C18.2133 16.1105 18.2538 16.1033 18.2947 16.1027C18.408 16.1027 18.4613 16.1827 18.4613 16.3387V16.7067C18.4613 16.8201 18.4453 16.8987 18.412 16.9467C18.3506 17.0139 18.2743 17.066 18.1893 17.0987C17.8886 17.2233 17.5752 17.315 17.2547 17.3721C16.8945 17.4426 16.5283 17.4779 16.1613 17.4774M8.92933 17.2814C8.756 17.2814 8.66933 17.1934 8.66933 17.0187V10.9121C8.66933 10.7387 8.75467 10.6521 8.92933 10.6521H9.50533C9.59067 10.6521 9.66 10.6681 9.70933 10.7041C9.75733 10.7374 9.78933 10.8054 9.80533 10.8987L9.89867 11.6321C10.1333 11.3787 10.356 11.1787 10.564 11.0294C10.9602 10.7453 11.4365 10.5945 11.924 10.5987C12.0293 10.5987 12.1347 10.6027 12.2373 10.6121C12.3867 10.6307 12.4613 10.7081 12.4613 10.8467V11.5534C12.4613 11.7094 12.384 11.7894 12.224 11.7894C12.1467 11.7894 12.072 11.7841 11.9973 11.7761C11.9176 11.7672 11.8375 11.7628 11.7573 11.7627C11.0587 11.7627 10.46 11.9721 9.96267 12.3894V17.0187C9.96267 17.1934 9.87467 17.2814 9.70267 17.2814H8.92933ZM5.93067 17.2814C5.75733 17.2814 5.66933 17.1934 5.66933 17.0187V10.9121C5.66933 10.7387 5.75733 10.6521 5.93067 10.6521H6.70267C6.876 10.6521 6.96267 10.7374 6.96267 10.9121V17.0187C6.96267 17.1934 6.876 17.2814 6.70267 17.2814H5.93067ZM6.324 9.47339C6.07067 9.47339 5.872 9.40139 5.728 9.26005C5.65548 9.1844 5.59906 9.09482 5.56216 8.99673C5.52527 8.89864 5.50865 8.79408 5.51333 8.68939C5.51333 8.45472 5.58533 8.26539 5.72667 8.12139C5.87333 7.97605 6.06933 7.90405 6.324 7.90405C6.576 7.90405 6.77333 7.97605 6.91867 8.12139C7.06133 8.26539 7.132 8.45472 7.132 8.68939C7.13667 8.79377 7.12018 8.89802 7.08352 8.99586C7.04686 9.0937 6.99078 9.18311 6.91867 9.25872C6.83898 9.33251 6.74528 9.38954 6.64312 9.42641C6.54097 9.46329 6.43245 9.47926 6.324 9.47339ZM1.49067 17.2814C1.31467 17.2814 1.228 17.1934 1.228 17.0187V11.6721H0.26C0.0866667 11.6721 0 11.5841 0 11.4094V11.0827C0 10.9961 0.0186667 10.9307 0.0573333 10.8867C0.0973333 10.8427 0.174667 10.8134 0.288 10.7934L1.228 10.6774V9.60539C1.228 8.15072 1.92533 7.42139 3.32133 7.42139C3.652 7.42139 4.00133 7.46939 4.36667 7.56672C4.46267 7.59205 4.52933 7.62939 4.56933 7.68405C4.608 7.73472 4.628 7.82672 4.628 7.95739V8.29739C4.628 8.46272 4.564 8.54539 4.43067 8.54539C4.35333 8.54539 4.244 8.53205 4.1 8.50672C3.95333 8.48005 3.79333 8.46672 3.608 8.46672C3.208 8.46672 2.928 8.54272 2.764 8.69605C2.60267 8.84939 2.52267 9.10005 2.52267 9.44805V10.6521H4.288C4.46267 10.6521 4.55067 10.7374 4.55067 10.9121V11.4094C4.55067 11.5827 4.46267 11.6721 4.288 11.6721H2.52267V17.0187C2.52267 17.1934 2.436 17.2814 2.26133 17.2814H1.49067Z" fill="#D883FF"/>
</svg>
