<svg width="27" height="24" viewBox="0 0 27 24" fill="none" xmlns="http://www.w3.org/2000/svg">
<g clip-path="url(#clip0_101_2161)">
<path d="M5.84531 9.45938C5.85 8.90625 5.84531 8.35781 5.84531 7.80469V6.15C5.84531 6.08906 5.86406 6.05625 5.91094 6.02344C6.45 5.64844 7.04063 5.45625 7.70156 5.50313C8.2875 5.54531 8.76562 5.83125 9.01875 6.52031C9.17344 6.9375 9.21094 7.37344 9.21094 7.81875C9.21094 8.22656 9.17813 8.62969 9.05156 9.01875C8.78438 9.85312 8.175 10.1766 7.37812 10.1391C6.82969 10.1156 6.35156 9.90469 5.90625 9.59063C5.86406 9.55313 5.84062 9.51562 5.84531 9.45938ZM13.1063 10.1437C13.3219 10.2281 13.5422 10.2375 13.7672 10.2141C14.3109 10.1578 14.7937 9.94687 15.2344 9.62812C15.2766 9.6 15.2953 9.56719 15.2953 9.51094C15.2906 9.32812 15.2953 9.14063 15.2953 8.95781C15.2953 8.77031 15.2906 8.58281 15.2953 8.39531C15.2953 8.32969 15.2766 8.30156 15.2109 8.29219C14.8828 8.25 14.5594 8.18906 14.2313 8.15625C13.9031 8.12813 13.575 8.14219 13.2562 8.24531C12.9422 8.34844 12.7078 8.53594 12.6141 8.85938C12.5391 9.1125 12.5391 9.36562 12.6188 9.61875C12.6938 9.87656 12.8625 10.05 13.1063 10.1437ZM27 3.75V20.25C27 21.4922 25.9922 22.5 24.75 22.5H2.25C1.00781 22.5 0 21.4922 0 20.25V3.75C0 2.50781 1.00781 1.5 2.25 1.5H24.75C25.9922 1.5 27 2.50781 27 3.75ZM17.2734 4.87031C17.2922 4.95 17.3156 5.02969 17.3484 5.10938C18.1219 7.0125 18.8906 8.92031 19.6688 10.8234C19.7344 10.9875 19.7484 11.1234 19.6781 11.2875C19.5469 11.5781 19.4484 11.8781 19.3125 12.1641C19.1906 12.4219 18.9984 12.6094 18.7172 12.6891C18.5203 12.7406 18.3188 12.75 18.1125 12.7313C18.0141 12.7219 17.9156 12.6984 17.8172 12.6937C17.6859 12.6844 17.6203 12.7453 17.6156 12.8812C17.6109 13.0125 17.6109 13.1438 17.6156 13.2703C17.6203 13.4859 17.6906 13.5844 17.9062 13.6219C18.1266 13.6594 18.3469 13.6969 18.5719 13.7016C19.2422 13.7156 19.7766 13.4484 20.1234 12.8625C20.2594 12.6328 20.3859 12.3891 20.4844 12.1406C21.4125 9.79219 22.3359 7.43906 23.2594 5.08594C23.2875 5.01562 23.3109 4.94531 23.3203 4.87031C23.3391 4.75781 23.2875 4.70156 23.175 4.69687C22.9125 4.69219 22.6547 4.69687 22.3922 4.69687C22.2469 4.69687 22.1437 4.7625 22.0922 4.89844C22.0734 4.95 22.05 5.00625 22.0312 5.05781L20.6672 8.98125C20.5688 9.26719 20.4703 9.54844 20.3625 9.85312C20.3438 9.81094 20.3344 9.7875 20.325 9.76406C19.8188 8.3625 19.3125 6.95625 18.8063 5.55469C18.7266 5.33437 18.6422 5.10938 18.5578 4.88906C18.5156 4.77188 18.4312 4.70156 18.3047 4.70156C18.0047 4.69688 17.7047 4.69219 17.4047 4.69687C17.3016 4.69687 17.25 4.77188 17.2734 4.87031ZM11.3625 9.65625C11.4422 10.2047 11.7188 10.6313 12.2062 10.9031C12.6703 11.1609 13.1766 11.1937 13.6922 11.1187C14.2875 11.0297 14.8125 10.7766 15.2766 10.3922C15.2953 10.3781 15.3141 10.3641 15.3422 10.3453C15.3656 10.4953 15.3844 10.6359 15.4125 10.7766C15.4359 10.8984 15.5109 10.9781 15.6234 10.9828C15.8391 10.9875 16.05 10.9875 16.2656 10.9828C16.3734 10.9781 16.4438 10.9078 16.4531 10.8C16.4578 10.7625 16.4578 10.725 16.4578 10.6922V6.52969C16.4578 6.36094 16.4484 6.19219 16.425 6.02344C16.35 5.51719 16.1344 5.1 15.6797 4.83281C15.4172 4.67812 15.1266 4.59844 14.8266 4.55625C14.6859 4.5375 14.5453 4.52344 14.4 4.50469H13.9313C13.8938 4.50937 13.8563 4.51875 13.8141 4.51875C13.4297 4.5375 13.05 4.58438 12.6797 4.68281C12.4406 4.74375 12.2109 4.83281 11.9766 4.9125C11.8359 4.95938 11.7656 5.0625 11.7703 5.21719C11.775 5.34844 11.7656 5.47969 11.7703 5.60625C11.775 5.79844 11.8547 5.85 12.0375 5.79844C12.3422 5.71875 12.6516 5.63438 12.9609 5.57344C13.4438 5.48438 13.9313 5.44687 14.4188 5.51719C14.6719 5.55469 14.9109 5.62969 15.0797 5.84531C15.225 6.03281 15.2766 6.25781 15.2859 6.4875C15.3 6.81094 15.2953 7.13906 15.3 7.4625C15.3 7.48125 15.2953 7.49531 15.2906 7.51875C15.2719 7.51875 15.2531 7.51875 15.2391 7.51406C14.8266 7.41563 14.4094 7.34531 13.9828 7.32187C13.5375 7.29844 13.0969 7.32656 12.675 7.47187C12.1687 7.65 11.7609 7.95469 11.5219 8.44687C11.3297 8.83594 11.3062 9.24375 11.3625 9.65625ZM4.62656 5.01094V13.2281C4.62656 13.2656 4.62656 13.3078 4.63125 13.3453C4.64062 13.4625 4.71094 13.5375 4.82344 13.5422C5.1 13.5469 5.37656 13.5469 5.65312 13.5422C5.77031 13.5422 5.84062 13.4625 5.84531 13.35C5.85 13.3125 5.85 13.2703 5.85 13.2328V10.3875C5.89219 10.4203 5.91562 10.4437 5.93906 10.4625C6.64219 11.0484 7.44844 11.2406 8.33438 11.0672C9.13594 10.9078 9.68906 10.4156 10.0547 9.69844C10.3266 9.15469 10.4437 8.56875 10.4625 7.96406C10.4859 7.29375 10.4156 6.63281 10.1437 6.00937C9.81094 5.24062 9.25781 4.72969 8.42344 4.56094C8.29688 4.53281 8.16562 4.52344 8.03906 4.50469H7.71094C7.65469 4.51406 7.59844 4.51875 7.54219 4.52812C6.99375 4.59375 6.49688 4.8 6.05156 5.12344C5.95781 5.18906 5.86875 5.26406 5.775 5.33438C5.77031 5.31094 5.76094 5.29688 5.75625 5.27812C5.7375 5.17031 5.72344 5.0625 5.70469 4.95469C5.67656 4.77187 5.5875 4.69687 5.40469 4.69219H4.95C4.67344 4.6875 4.62656 4.73906 4.62656 5.01094ZM23.1375 15.8906C23.0109 15.8578 22.8984 15.8906 22.7812 15.9375C20.7234 16.8 18.5859 17.3531 16.3688 17.6156C15.6891 17.6953 15.0047 17.7469 14.3203 17.7656C13.0734 17.7984 11.8266 17.7281 10.5891 17.5641C9.75469 17.4516 8.925 17.2969 8.10469 17.1C6.37031 16.6828 4.69687 16.0828 3.10312 15.2812C2.69062 15.075 2.2875 14.8453 1.87969 14.625C1.70156 14.5266 1.58906 14.5547 1.49531 14.7234V14.8031C1.55156 14.8781 1.59844 14.9625 1.66875 15.0281C3.35625 16.5375 5.25938 17.6766 7.3875 18.4453C8.41406 18.8156 9.46875 19.0875 10.5422 19.2656C11.1984 19.3734 11.8547 19.4438 12.5203 19.4766C12.6609 19.4813 12.8016 19.4859 12.9422 19.4953C12.975 19.4953 13.0078 19.5047 13.0406 19.5094H13.8703C13.9031 19.5047 13.9359 19.4953 13.9688 19.4953C14.6672 19.4766 15.3656 19.4109 16.0594 19.3078C17.0625 19.1578 18.0469 18.9281 19.0078 18.6188C20.3953 18.1688 21.7125 17.5688 22.9172 16.7391C23.0484 16.65 23.1844 16.5609 23.2922 16.4484C23.4937 16.2422 23.4 15.9609 23.1375 15.8906ZM25.5 14.5922C25.4625 14.3953 25.3125 14.3203 25.1438 14.2641C24.8766 14.175 24.6 14.1328 24.3187 14.1094C23.8031 14.0672 23.2875 14.0906 22.7812 14.1844C22.2188 14.2875 21.6844 14.4703 21.2109 14.7984C21.1547 14.8359 21.0984 14.8828 21.0656 14.9391C21.0375 14.9813 21.0328 15.0469 21.0422 15.0984C21.0562 15.1594 21.1219 15.1734 21.1828 15.1688C21.2109 15.1688 21.2391 15.1687 21.2672 15.1641L22.1813 15.0656C22.6313 15.0234 23.0812 14.9953 23.5312 15.0281C23.7234 15.0422 23.9109 15.0844 24.0938 15.1312C24.2953 15.1828 24.3844 15.3375 24.3938 15.5391C24.4078 15.8531 24.3375 16.1531 24.2578 16.4531C24.0938 17.0578 23.8688 17.6437 23.6344 18.225C23.6203 18.2625 23.6016 18.3047 23.5969 18.3422C23.5781 18.4594 23.6437 18.5297 23.7562 18.5062C23.8219 18.4922 23.8969 18.4547 23.9437 18.4078C24.1172 18.2391 24.2953 18.0703 24.4406 17.8828C24.9422 17.2359 25.2375 16.4953 25.4109 15.6984C25.4437 15.5578 25.4672 15.4125 25.4906 15.2719C25.5 15.0516 25.5 14.8219 25.5 14.5922Z" fill="white"/>
</g>
<defs>
<clipPath id="clip0_101_2161">
<rect width="27" height="24" fill="white"/>
</clipPath>
</defs>
</svg>
