<svg width="32" height="32" viewBox="0 0 32 32" fill="none" xmlns="http://www.w3.org/2000/svg">
<path d="M25.853 26.3332H6.14634C5.33975 26.3378 4.56426 26.0223 3.98998 25.4559C3.4157 24.8895 3.08953 24.1185 3.08301 23.3119V8.68789C3.08953 7.88131 3.4157 7.11025 3.98998 6.54384C4.56426 5.97744 5.33975 5.66194 6.14634 5.66655H25.853C26.6596 5.66194 27.4351 5.97744 28.0094 6.54384C28.5836 7.11025 28.9098 7.88131 28.9163 8.68789V23.3119C28.9098 24.1185 28.5836 24.8895 28.0094 25.4559C27.4351 26.0223 26.6596 26.3378 25.853 26.3332ZM6.95767 22.4579H25.0417V9.54255H6.95701L6.95767 22.4579Z" stroke="#D883FF" stroke-linecap="round" stroke-linejoin="round"/>
<path d="M28.9163 11.4794C28.9163 10.9656 28.7122 10.4728 28.3489 10.1095C27.9856 9.74619 27.4928 9.54208 26.979 9.54208H24.785M23.1037 26.3334C23.6175 26.3334 24.1103 26.1293 24.4736 25.766C24.8369 25.4027 25.041 24.9099 25.041 24.3961V22.2021M3.08301 20.5207C3.08301 21.0346 3.28712 21.5273 3.65044 21.8906C4.01376 22.254 4.50653 22.4581 5.02034 22.4581H7.21434M8.89567 5.66675C8.38186 5.66675 7.88909 5.87086 7.52577 6.23418C7.16245 6.5975 6.95834 7.09027 6.95834 7.60408V9.79808" stroke="#D883FF" stroke-linecap="round" stroke-linejoin="round"/>
</svg>
