<svg width="18" height="19" viewBox="0 0 18 19" fill="none" xmlns="http://www.w3.org/2000/svg">
<path d="M8.046 1.02466C9.91407 1.02683 11.705 1.78826 13.0259 3.14191C14.3469 4.49556 15.0899 6.33088 15.092 8.24522C15.0939 9.9303 14.5181 11.5625 13.465 12.8567L16.809 16.2836C16.931 16.4086 16.9995 16.5781 16.9995 16.755C16.9995 16.9318 16.931 17.1013 16.809 17.2264C16.687 17.3514 16.5215 17.4216 16.349 17.4216C16.1765 17.4216 16.011 17.3514 15.889 17.2264L12.545 13.7985C11.2824 14.8774 9.69 15.4675 8.046 15.4658C6.17793 15.4636 4.38699 14.7022 3.06606 13.3485C1.74514 11.9949 1.00212 10.1596 1 8.24522C1.00212 6.33088 1.74514 4.49556 3.06606 3.14191C4.38699 1.78826 6.17793 1.02683 8.046 1.02466ZM8.046 2.35687C6.52273 2.35876 5.06239 2.97979 3.98536 4.08368C2.90834 5.18758 2.30259 6.68421 2.301 8.24522C2.30285 9.80606 2.90872 11.3024 3.98572 12.4061C5.06271 13.5098 6.5229 14.1307 8.046 14.1326C9.5691 14.1307 11.0293 13.5098 12.1063 12.4061C13.1833 11.3024 13.7891 9.80606 13.791 8.24522C13.7891 6.68439 13.1833 5.18802 12.1063 4.08435C11.0293 2.98067 9.5691 2.35979 8.046 2.35789V2.35687Z" fill="white" stroke="white" stroke-width="0.5"/>
</svg>
