<svg width="44" height="44" viewBox="0 0 44 44" fill="none" xmlns="http://www.w3.org/2000/svg">
<path d="M31.5 26H27.75C27.3358 26 27 26.4477 27 27V30C27 30.5522 27.3358 31 27.75 31C28.1642 31 28.5 30.5522 28.5 30V28H31.5C31.9142 28 32.25 27.5523 32.25 27C32.25 26.4477 31.9142 26 31.5 26Z" fill="#F5F1F5"/>
<path d="M38.25 26H34.5C34.0858 26 33.75 26.4477 33.75 27C33.75 27.5523 34.0858 28 34.5 28H37.5V30C37.5 30.5522 37.8358 31 38.25 31C38.6642 31 39 30.5522 39 30V27C39 26.4477 38.6642 26 38.25 26Z" fill="#F5F1F5"/>
<path d="M38.25 33C37.8358 33 37.5 33.4477 37.5 34V36H34.5C34.0858 36 33.75 36.4478 33.75 37C33.75 37.5522 34.0858 38 34.5 38H38.25C38.6642 38 39 37.5522 39 37V34C39 33.4477 38.6642 33 38.25 33Z" fill="#F5F1F5"/>
<path d="M31.5 36H28.5V34C28.5 33.4477 28.1642 33 27.75 33C27.3358 33 27 33.4477 27 34V37C27 37.5522 27.3358 38 27.75 38H31.5C31.9142 38 32.25 37.5522 32.25 37C32.25 36.4478 31.9142 36 31.5 36Z" fill="#F5F1F5"/>
<path d="M2 42V2H42V42H2Z" stroke="#F5F1F5" stroke-width="4" stroke-linejoin="round"/>
<path d="M7 10.0001L25 26.0001M7 10.0001L11 8.66675M7 10.0001L7.5 14.6667M25 26.0001L24 20.0001M25 26.0001L20.5 27.3334" stroke="#F5F1F5" stroke-width="2" stroke-linecap="round" stroke-linejoin="round"/>
</svg>
